<svg width="190" height="53" viewBox="0 0 190 53" fill="none" xmlns="http://www.w3.org/2000/svg">
<path fill-rule="evenodd" clip-rule="evenodd" d="M90.4365 41.2057H97.8191V11.7548H90.4365V41.2057Z" fill="#616867"/>
<path fill-rule="evenodd" clip-rule="evenodd" d="M116.15 35.0034C120.841 35.0034 124.288 30.9839 124.288 26.4717C124.288 21.9591 120.822 17.9778 116.15 17.9778C111.459 17.9778 107.993 21.9591 107.993 26.4717C107.993 30.9839 111.459 35.0034 116.15 35.0034ZM116.207 10.811C125.054 10.811 132.177 17.5986 132.177 26.4148C132.177 35.2688 124.996 42.1889 116.131 42.1889C107.265 42.1889 100.085 35.3637 100.085 26.5286C100.085 17.7122 107.361 10.811 116.207 10.811ZM133.026 32.2993L139.8 30.7058C140.286 34.2445 142.887 35.5231 145.619 35.5231C148.332 35.5231 149.324 33.9296 149.324 32.6882C149.324 31.6877 148.744 30.7058 146.761 30.3168L142.625 29.5199C137.685 28.5752 134.186 25.4994 134.186 20.7749C134.186 15.1426 139.369 11.1776 145.226 11.1776C152.767 11.1776 155.873 15.8466 156.416 19.7561L149.773 21.6087C149.418 19.2001 147.921 17.4587 145.189 17.4587C142.831 17.4587 141.708 19.0149 141.708 20.2006C141.708 21.1825 142.176 22.3128 143.935 22.6463L148.239 23.4614C153.871 24.5362 156.959 27.9451 156.959 32.3733C156.959 37.1907 152.767 41.8225 145.582 41.8225C138.06 41.8225 134.018 37.9131 133.026 32.2993Z" fill="#616867"/>
<path fill-rule="evenodd" clip-rule="evenodd" d="M41.1185 41.2057H33.1733L46.3111 11.7548H54.2942L41.1185 41.2057Z" fill="#838C8B"/>
<path fill-rule="evenodd" clip-rule="evenodd" d="M69.0644 11.7363H59.9132L69.9103 26.1462L64.3476 34.2219L54.3257 11.7537H46.3418L59.5184 41.2054H68.0393L74.2637 31.8692L80.4146 41.2054H89.0288L78.7467 26.1462L88.6149 11.7363H79.586L74.2637 20.4596L69.0644 11.7363Z" fill="#616867"/>
</svg>
