<svg width="296" height="51" viewBox="0 0 296 51" fill="none" xmlns="http://www.w3.org/2000/svg">
<g clip-path="url(#clip0_2467_58821)">
<path d="M33.7007 34.7625C33.7682 34.3789 33.8204 33.9923 33.9078 33.6132C34.784 29.8232 39.0022 27.9557 42.3856 29.8876C43.426 30.483 44.4019 31.1919 45.3978 31.8624C49.8047 34.8209 54.2085 37.7823 58.6139 40.7438C58.6937 40.7975 58.7735 40.8543 58.9239 40.9586C58.7305 40.9678 58.617 40.9786 58.5034 40.9786C52.1248 40.9786 45.7445 40.9801 39.3659 40.9786C36.7389 40.9786 34.2914 38.8902 33.8587 36.2862C33.8096 35.9978 33.7529 35.7108 33.7007 35.4239C33.7007 35.2029 33.7007 34.982 33.7007 34.7625Z" fill="#616867"/>
<path d="M150.257 20.971V21.5725C150.257 27.6258 150.257 33.6808 150.257 39.7341C150.257 40.0922 150.08 40.2712 149.725 40.2712C146.645 40.2712 143.566 40.2712 140.484 40.2712C140.328 40.2712 140.171 40.2712 139.969 40.2712V39.8385C139.969 31.1735 139.972 22.51 139.961 13.845C139.961 13.4721 140.055 13.3755 140.429 13.3755C145.547 13.3877 150.662 13.3862 155.78 13.3785C156.039 13.3785 156.199 13.4522 156.352 13.6685C160.764 19.8953 165.183 26.1175 169.602 32.3397C169.717 32.5023 169.844 32.6542 169.966 32.8123C170.004 32.8015 170.044 32.7908 170.082 32.78C170.082 32.6312 170.082 32.4808 170.082 32.332C170.082 26.1681 170.087 20.0027 170.073 13.8389C170.073 13.4568 170.181 13.3724 170.546 13.3739C173.699 13.3893 176.852 13.3831 180.007 13.3831C180.128 13.3831 180.25 13.3831 180.401 13.3831V40.2712H179.927C175.068 40.2712 170.208 40.2666 165.35 40.2804C165 40.2804 164.802 40.1669 164.6 39.8968C159.963 33.6808 155.318 27.4709 150.673 21.261C150.589 21.1474 150.495 21.0431 150.405 20.9326C150.356 20.9449 150.305 20.9571 150.256 20.9694L150.257 20.971Z" fill="#616867"/>
<path d="M210.785 26.2387C211.351 26.3154 211.922 26.3691 212.484 26.4704C214.618 26.857 216.518 27.7025 217.909 29.4318C220.166 32.2368 219.631 35.6157 216.63 37.612C215.137 38.6048 213.462 39.1433 211.73 39.5208C209.883 39.9228 208.011 40.1423 206.12 40.1929C204.55 40.2343 202.981 40.265 201.412 40.2666C195.658 40.2742 189.904 40.2696 184.15 40.2696C183.993 40.2696 183.835 40.2696 183.653 40.2696V13.403C183.737 13.3954 183.808 13.3846 183.878 13.3846C190.541 13.3862 197.204 13.3693 203.865 13.4C206.728 13.4122 209.571 13.6792 212.335 14.4879C213.777 14.9099 215.158 15.4776 216.343 16.4305C217.547 17.3987 218.327 18.6002 218.262 20.2052C218.212 21.4696 217.604 22.4961 216.74 23.3723C215.519 24.6091 214.001 25.3287 212.341 25.7707C211.827 25.9072 211.304 26.0131 210.786 26.1343V26.2402L210.785 26.2387ZM195.023 34.6167C195.1 34.6244 195.16 34.6367 195.218 34.6351C197.682 34.5845 200.147 34.563 202.609 34.4648C203.584 34.4265 204.549 34.2178 205.443 33.7636C206.673 33.1406 206.76 31.7473 206.297 30.8972C205.915 30.196 205.242 29.8569 204.527 29.6052C203.36 29.194 202.14 29.0498 200.912 29.0191C199.097 28.9746 197.282 28.9776 195.465 28.9623C195.321 28.9623 195.178 28.9807 195.025 28.9915V34.6152L195.023 34.6167ZM195.037 18.4161C195.02 18.5189 195.005 18.5664 195.005 18.614C195.003 20.2804 195.008 21.9453 194.997 23.6117C194.995 23.891 195.149 23.8971 195.348 23.8925C197.59 23.8434 199.834 23.8188 202.075 23.7344C202.991 23.6992 203.901 23.5258 204.745 23.1237C205.493 22.7677 205.935 22.2031 205.941 21.3468C205.948 20.2528 205.347 19.4579 204.151 19.0176C202.867 18.5434 201.52 18.4575 200.171 18.4314C198.81 18.4053 197.449 18.4207 196.088 18.4191C195.746 18.4191 195.405 18.4191 195.037 18.4191V18.4161Z" fill="#616867"/>
<path d="M125.038 31.1919H137.535C137.428 31.6967 137.355 32.1847 137.22 32.6527C136.731 34.3467 135.654 35.6218 134.274 36.6668C132.43 38.0646 130.318 38.9009 128.117 39.5362C125.875 40.1822 123.585 40.5612 121.264 40.7883C118.605 41.0491 115.945 40.9816 113.288 40.8374C110.2 40.6701 107.142 40.2742 104.205 39.2354C102.145 38.5066 100.268 37.4785 98.7749 35.8428C97.3816 34.3175 96.5806 32.5069 96.2292 30.4876C95.9362 28.8104 95.9162 27.1271 96.1571 25.4438C96.4594 23.3278 97.2819 21.4282 98.6199 19.7587C100.599 17.2883 103.222 15.7615 106.151 14.7043C108.855 13.7283 111.66 13.2389 114.517 12.9995C117.101 12.7831 119.689 12.7663 122.273 12.9458C125.477 13.1667 128.626 13.6839 131.614 14.9283C133.177 15.5789 134.624 16.4167 135.803 17.6581C136.95 18.8657 137.595 20.2958 137.702 21.9622C137.715 22.1494 137.67 22.2461 137.469 22.2338C137.408 22.2307 137.346 22.2338 137.285 22.2338C133.383 22.2338 129.481 22.2307 125.58 22.2414C125.266 22.2414 125.144 22.154 125.061 21.8394C124.663 20.328 123.687 19.2984 122.218 18.815C119.628 17.9634 116.992 17.8253 114.377 18.6877C111.925 19.4963 110.351 21.2256 109.519 23.6378C108.723 25.9471 108.789 28.2841 109.442 30.6042C110.067 32.823 111.634 34.1395 113.766 34.8362C115.582 35.43 117.471 35.6786 119.353 35.4837C121.271 35.2842 122.97 34.4434 124.296 32.9841C124.741 32.4946 125.003 31.9023 125.038 31.1903V31.1919Z" fill="#616867"/>
<path d="M249.987 31.1981H262.367C262.339 31.999 262.146 32.7356 261.836 33.4414C261.059 35.206 259.706 36.4367 258.092 37.4156C255.908 38.7399 253.507 39.4933 251.033 40.0441C247.09 40.9234 243.1 41.0737 239.079 40.8789C236.811 40.7684 234.558 40.5689 232.333 40.1132C230.15 39.6667 228.043 39.0038 226.128 37.8299C223.285 36.0853 221.621 33.5565 221.095 30.2682C220.753 28.1276 220.779 26.0055 221.368 23.9094C222.089 21.3454 223.573 19.2923 225.641 17.6443C227.957 15.7999 230.63 14.7074 233.467 13.9754C235.753 13.3862 238.08 13.018 240.437 12.9474C242.678 12.8799 244.928 12.8446 247.167 12.9596C250.522 13.133 253.812 13.7161 256.915 15.0895C258.629 15.849 260.174 16.8433 261.314 18.3732C262.097 19.4227 262.487 20.6135 262.591 21.9116C262.62 22.2722 262.408 22.2369 262.18 22.2369C258.265 22.2369 254.351 22.2369 250.438 22.2369C250.389 22.2369 250.328 22.2553 250.292 22.2338C250.183 22.1648 250.015 22.0988 249.99 22.0006C249.511 20.0503 248.166 19.0207 246.306 18.5665C244.306 18.0786 242.286 17.9543 240.259 18.4054C237.002 19.1296 235.034 21.1935 234.179 24.3544C233.633 26.3722 233.736 28.4069 234.257 30.4094C234.868 32.7494 236.473 34.1457 238.73 34.8577C240.539 35.4301 242.414 35.6771 244.283 35.4868C246.203 35.292 247.9 34.448 249.23 32.9949C249.679 32.5054 249.942 31.9162 249.985 31.1996L249.987 31.1981Z" fill="#616867"/>
<path d="M57.2975 36.8571C56.5871 35.1554 55.9073 33.5319 55.2322 31.9069C53.3709 27.434 51.5111 22.9627 49.6514 18.4898C48.8258 16.5042 48.9148 14.56 50.0381 12.7187C51.2579 10.7209 53.7407 9.69585 56.0592 10.1608C58.2903 10.6088 60.2007 12.6006 60.572 14.8608C60.7577 15.9932 60.5674 17.1011 60.3833 18.2136C59.8478 21.4466 59.3215 24.6828 58.7921 27.9174C58.3179 30.8144 57.8438 33.7114 57.3681 36.6069C57.3589 36.6668 57.3343 36.7236 57.296 36.8555L57.2975 36.8571Z" fill="#616867"/>
<path d="M64.5969 38.8533C65.2675 37.2667 65.935 35.6786 66.6086 34.0919C68.5082 29.6221 70.3956 25.1477 72.3213 20.6886C73.1852 18.6877 74.7565 17.4908 76.9093 17.2253C79.1649 16.9461 81.0093 17.8084 82.3167 19.6697C84.3038 22.4977 83.5642 26.2402 80.6303 28.2135C75.6587 31.5586 70.6687 34.8791 65.6864 38.2089C65.3411 38.439 64.9959 38.6707 64.6522 38.9009C64.6338 38.8856 64.6153 38.8702 64.5969 38.8533Z" fill="#616867"/>
<path d="M57.1886 38.9623C55.915 38.0908 54.6414 37.2207 53.3678 36.3492C49.2417 33.5243 45.1002 30.7208 40.9956 27.8668C39.2095 26.6239 38.4714 24.8194 38.6218 22.6742C38.7798 20.4308 39.9 18.7476 41.8855 17.7287C44.6874 16.2909 48.2351 17.54 49.5746 20.4523C50.5705 22.619 51.4298 24.847 52.3412 27.052C53.9371 30.9065 55.5268 34.7626 57.118 38.6186C57.1594 38.7184 57.1993 38.8181 57.2407 38.9194C57.2223 38.9347 57.2054 38.9485 57.187 38.9639L57.1886 38.9623Z" fill="#616867"/>
<path d="M63.1467 40.8529C63.9784 40.2928 64.8116 39.7327 65.6433 39.1726C70.0778 36.1912 74.5108 33.2052 78.95 30.2314C81.5386 28.4975 84.4955 28.8105 86.6329 31.037C87.7117 32.1602 88.1121 33.5566 88.1244 35.0695C88.1474 38.0095 86.2064 40.3465 83.3185 40.8882C83.0914 40.9311 82.8551 40.9434 82.6234 40.9434C76.2447 40.9465 69.8661 40.9449 63.4858 40.9434C63.38 40.9434 63.2726 40.9327 63.1667 40.9281C63.1605 40.902 63.1529 40.8759 63.1467 40.8513V40.8529Z" fill="#616867"/>
<path d="M61.4113 16.251C61.3683 14.2869 61.9729 12.6758 63.4061 11.4298C66.7005 8.56651 71.7949 10.2882 72.78 14.5831C73.0716 15.8551 72.9657 17.098 72.4639 18.2903C69.8968 24.3912 67.3128 30.4861 64.7349 36.5824C64.7165 36.6269 64.6889 36.6668 64.626 36.785C64.5293 36.2571 64.4372 35.8014 64.3651 35.3426C63.937 32.6113 63.515 29.8784 63.09 27.1471C62.7125 24.7181 62.3427 22.286 61.9499 19.8585C61.7719 18.7568 62.131 17.9082 63.0808 17.3251C63.3524 17.1579 63.624 16.9906 63.8986 16.831C64.158 16.6807 64.1257 16.5195 63.891 16.4075C63.7099 16.3216 63.4982 16.2633 63.2987 16.2572C62.688 16.2387 62.0757 16.251 61.4128 16.251H61.4113Z" fill="#616867"/>
</g>
<defs>
<clipPath id="clip0_2467_58821">
<rect width="228.895" height="30.9574" fill="white" transform="translate(33.7009 10.0212)"/>
</clipPath>
</defs>
</svg>
