<svg width="215" height="54" viewBox="0 0 215 54" fill="none" xmlns="http://www.w3.org/2000/svg">
<path d="M117.198 21.0467C117.198 16.7288 117.273 12.7087 117.497 8.98633L106.066 11.1453V12.1875L107.187 12.3364C108.009 12.4109 108.532 12.7087 108.831 13.1553C109.129 13.6765 109.354 14.4209 109.503 15.5376C109.652 17.6966 109.802 22.6101 109.727 30.3525C109.727 38.0205 109.652 42.8596 109.503 44.7207C113.612 45.6141 116.824 45.9863 119.215 45.9863C123.698 45.9863 127.209 44.7207 129.749 42.1151C132.289 39.5839 133.634 36.0105 133.634 31.6181C133.634 28.1191 132.663 25.2157 130.721 22.9079C128.778 20.6 126.313 19.4833 123.399 19.4833C121.457 19.4833 119.439 20.0044 117.198 21.0467ZM117.422 43.9763C117.273 41.594 117.123 34.4471 117.123 22.759C117.796 22.5356 118.692 22.3867 119.813 22.3867C121.606 22.3867 123.025 23.2801 124.071 25.1413C125.117 27.0024 125.64 29.2358 125.64 32.0648C125.64 35.5638 125.043 38.3928 123.847 40.7751C122.652 43.0829 121.158 44.2741 119.29 44.2741C118.692 44.1252 118.095 44.0507 117.422 43.9763ZM63.1829 9.73079H33.299V11.2197L34.8679 11.3686C36.0633 11.592 36.8851 12.0386 37.408 12.7087C37.931 13.4531 38.2299 14.6443 38.3046 16.2821C38.9022 24.3223 38.9022 31.8415 38.3046 38.765C38.1551 40.4028 37.8563 41.594 37.408 42.3384C36.8851 43.0829 36.0633 43.5296 34.8679 43.6785L33.299 43.9018V45.3908H52.5741V43.9018L50.557 43.7529C50.0647 43.7119 49.5859 43.572 49.1494 43.3417C48.7129 43.1114 48.3276 42.7955 48.0168 42.4129C47.4939 41.6684 47.195 40.4773 47.1203 38.8394C46.8962 35.8616 46.7468 32.437 46.7468 28.6403L50.7811 28.7147C52.9477 28.7891 54.4419 30.427 55.189 33.7026H56.6832V21.5678H55.189C54.4419 24.769 53.0224 26.4069 50.7811 26.4813L46.7468 26.5557C46.7468 19.8555 46.8962 15.091 47.1203 12.1875H53.0224C57.2061 12.1875 60.0451 14.8676 61.6887 20.2278L63.4817 19.7066L63.1829 9.73079ZM59.6715 32.6604C59.6715 36.5316 60.7922 39.7328 62.9588 42.264C65.1254 44.7952 68.3379 45.9863 72.3722 45.9863C76.4065 45.9863 79.6938 44.7207 82.0845 42.1151C84.4752 39.5839 85.5958 36.3827 85.5958 32.5115C85.5958 28.6403 84.4752 25.439 82.3086 22.9079C80.142 20.3767 76.9295 19.1855 72.8952 19.1855C68.8608 19.1855 65.5736 20.4511 63.1829 23.0568C60.7922 25.5879 59.6715 28.7891 59.6715 32.6604ZM76.3318 24.1735C77.2283 26.3324 77.6019 29.1614 77.6019 32.5859C77.6019 40.4773 75.9583 44.3485 72.7458 44.3485C71.1021 44.3485 69.8321 43.2318 68.9356 40.9984C68.039 38.765 67.6655 35.936 67.6655 32.5859C67.6655 24.769 69.3091 20.8978 72.5216 20.8978C74.1652 20.8233 75.4353 21.94 76.3318 24.1735ZM139.462 42.264C141.927 44.7207 145.065 45.9863 148.8 45.9863C151.116 45.9863 153.133 45.5396 154.926 44.5718C156.719 43.6785 158.139 42.5618 159.11 41.2217L158.363 40.3284C156.719 41.594 154.852 42.1895 152.685 42.1895C149.697 42.1895 147.381 41.2217 145.812 39.2117C144.168 37.2016 143.421 34.6704 143.571 31.3948H159.558C159.558 27.8213 158.662 24.9179 156.794 22.6101C154.926 20.3767 152.312 19.26 148.95 19.26C144.766 19.26 141.553 20.6 139.237 23.2056C136.921 25.8113 135.801 29.0125 135.801 32.8093C135.801 36.6805 136.996 39.8073 139.462 42.264ZM144.99 23.5779C145.812 21.7912 146.858 20.8978 148.277 20.8978C150.519 20.8978 151.639 23.7268 151.639 29.4592L143.72 29.6081C143.795 27.3747 144.168 25.3646 144.99 23.5779ZM179.655 20.6C177.638 19.7067 175.098 19.1855 172.035 19.1855C168.897 19.1855 166.432 20.0044 164.564 21.5678C162.696 23.1312 161.725 25.0668 161.725 27.3747C161.725 29.3847 162.323 30.9481 163.443 32.0648C164.564 33.1815 166.357 34.1493 168.673 34.9682C170.765 35.7127 172.259 36.4572 173.006 37.1272C173.753 37.8716 174.202 38.6906 174.202 39.8073C174.202 40.8495 173.828 41.8173 173.006 42.5618C172.259 43.3807 171.213 43.7529 169.868 43.7529C166.581 43.7529 164.116 41.3706 162.397 36.606L161.127 36.9783L161.426 44.4229C164.116 45.4652 167.104 45.9863 170.391 45.9863C173.828 45.9863 176.443 45.2419 178.385 43.6785C180.328 42.1895 181.299 40.0306 181.299 37.3505C181.299 35.5638 180.851 34.0749 179.88 32.9582C178.908 31.8415 177.339 30.8737 175.098 29.9803C172.633 29.0869 170.914 28.268 170.018 27.5236C169.121 26.7791 168.673 25.8857 168.673 24.769C168.673 23.6523 168.972 22.759 169.644 22.0145C170.317 21.27 171.138 20.9722 172.184 20.9722C175.173 20.9722 177.339 23.1312 178.684 27.3747L179.954 27.0024L179.655 20.6ZM107.785 19.93C106.739 19.4089 105.618 19.1855 104.348 19.1855C103.078 19.1855 101.808 19.7066 100.388 20.7489C98.9689 21.7912 97.9229 23.2056 97.1011 25.1413L97.1758 19.1855L85.82 21.4189V22.4612L86.9406 22.5356C88.3601 22.6845 89.1819 23.8012 89.3313 25.8113C89.7796 30.427 89.7796 35.3405 89.3313 40.5517C89.1819 42.5618 88.3601 43.604 86.9406 43.8274L85.82 43.9763V45.3908H101.658V43.9763L99.6413 43.8274C98.2218 43.6785 97.4 42.5618 97.2505 40.5517C96.8023 36.2338 96.7276 31.6181 97.1011 26.8535C97.5494 26.1091 98.5206 25.6624 100.015 25.5135C101.509 25.3646 103.227 25.8113 105.02 26.8535L107.785 19.93Z" fill="#616867"/>
</svg>
