<svg width="379" height="63" viewBox="0 0 379 63" fill="none" xmlns="http://www.w3.org/2000/svg">
<g clip-path="url(#clip0_2467_58851)">
<path d="M56.4778 15.3115C56.4778 11.9389 53.2738 11.0957 50.7444 11.0957V11.6016C52.2621 11.6016 53.4425 12.1075 53.4425 13.2879C53.4425 13.9624 52.9366 14.9742 51.4189 14.9742C50.2385 14.9742 47.709 14.2997 45.8541 13.6252C43.6619 12.782 41.6383 12.1075 39.952 12.1075C36.5794 12.1075 34.2186 14.6369 34.2186 17.5037C34.2186 20.0331 36.0735 20.8763 36.748 21.2135L36.9167 20.8763C36.5794 20.539 36.0735 20.2018 36.0735 19.19C36.0735 18.5155 36.748 17.335 38.4343 17.335C39.952 17.335 41.9756 18.0096 44.6737 18.8527C47.0345 19.5272 49.564 20.0331 50.913 20.2018V25.4293L48.3835 27.6215V27.7901L50.913 29.9823V37.2335C49.564 38.0766 48.0463 38.2452 46.6972 38.2452C44.1678 38.2452 41.9756 37.5707 40.1206 35.5472L47.0345 32.1745V20.539L38.603 24.2489C39.2775 22.0567 41.1324 20.539 42.9874 19.5272L42.8187 19.0213C37.7598 20.3704 33.2068 25.092 33.2068 30.8255C33.2068 37.5707 38.7716 42.6296 45.0109 42.6296C51.7562 42.6296 56.1406 37.2335 56.1406 31.6686H55.8033C54.7915 33.8608 53.2738 35.8844 51.4189 36.8962V29.9823L54.117 27.7901V27.6215L51.4189 25.4293V20.2018C53.9484 20.2018 56.4778 18.5155 56.4778 15.3115ZM41.807 33.8608L39.7834 34.8726C38.603 33.355 37.9284 31.3314 37.9284 28.4647C37.9284 27.2842 37.9284 25.9352 38.2657 24.9234L41.807 23.4057V33.8608ZM59.6818 37.7394L57.4896 39.4257L57.8269 39.7629L58.8387 38.9198L62.5485 42.2924L67.6074 38.9198L67.4388 38.5825L66.0898 39.4257L64.4035 37.7394V26.2725L65.7525 25.2607L68.6192 27.6215V37.908C68.6192 44.3159 67.2702 45.3277 64.4035 46.3395V46.8454C69.1251 47.014 73.5095 45.4964 73.5095 37.2335V26.1038L75.0272 24.9234L74.6899 24.5862L73.3409 25.5979L69.1251 22.0567L64.4035 25.5979V11.7702H64.0662L58.1641 15.8174V16.1546C58.8387 16.4919 59.8504 16.8291 59.8504 18.6841L59.6818 37.7394ZM90.5412 35.8844L86.3255 39.0884L82.1097 35.7158V33.6922L90.0353 28.296V28.1274L85.9882 22.0567L77.2194 26.7784V37.908L75.5331 39.257L75.8703 39.5943L77.388 38.4139L83.1215 42.6296L90.7098 36.5589L90.5412 35.8844ZM82.1097 33.0177V24.7548L82.4469 24.5862L86.1568 30.4882L82.1097 33.0177ZM122.75 13.7938C122.75 13.2879 122.581 12.782 122.412 12.2761H122.075C121.569 13.6252 120.895 14.2997 119.208 14.2997C117.691 14.2997 116.679 13.4565 116.004 12.782L111.114 18.3468L111.451 18.6841L113.138 17.1664C114.15 18.0096 114.993 18.6841 117.354 18.8527V32.8491L107.404 15.8174C106.561 14.4683 105.381 12.6134 103.02 12.6134C100.322 12.6134 97.961 14.9742 98.2982 18.6841H98.8041C98.9728 17.6723 99.4786 16.4919 100.659 16.4919C101.502 16.4919 102.345 17.335 102.851 18.1782V23.743C99.8159 23.743 97.7923 25.092 97.7923 27.6215C97.7923 28.9706 98.4669 30.9941 100.49 31.5V31.1628C100.153 30.8255 99.9845 30.4882 99.9845 29.9823C99.9845 29.1392 100.659 28.4647 101.839 28.4647H102.683V35.5472C99.1414 35.5472 96.2747 37.5707 96.2747 40.9433C96.2747 44.1473 98.9728 45.665 102.008 45.4964V45.1591C100.153 44.9905 99.31 44.1473 99.31 42.9669C99.31 41.4492 100.322 40.7747 101.671 40.7747C103.02 40.7747 104.2 41.6179 105.043 42.6296L109.934 37.2335L109.596 36.8962L108.416 38.2452C106.561 36.5589 105.549 36.053 103.357 35.7158V18.8527L116.848 42.461H117.859V18.8527C120.389 18.6841 122.75 16.6605 122.75 13.7938ZM135.06 35.8844L130.844 39.0884L126.628 35.7158V33.6922L134.554 28.296V28.1274L130.507 22.0567L121.738 26.7784V37.908L120.052 39.257L120.389 39.5943L121.907 38.4139L127.64 42.6296L135.228 36.5589L135.06 35.8844ZM126.628 33.0177V24.7548L126.965 24.5862L130.675 30.4882L126.628 33.0177ZM162.547 23.9116L161.366 24.7548L158.162 22.0567L154.452 25.4293L155.97 26.947V39.5943L151.923 37.0648V26.6097L153.272 25.7666L149.393 22.0567L145.683 25.4293L147.201 26.947V39.0884L146.695 39.4257L143.154 36.8962V26.7784C143.154 24.4175 141.974 23.743 140.625 22.8999C139.444 22.0567 138.77 21.5508 138.77 20.3704C138.77 19.3586 139.781 18.8527 140.287 18.5155V18.1782C138.938 18.1782 135.397 19.5272 135.397 22.7312C135.397 24.4175 136.24 25.092 137.083 25.9352C137.926 26.7784 138.77 27.4529 138.77 28.9706V38.7511L136.915 40.1002L137.252 40.4374L138.938 39.0884L142.817 42.461L147.032 39.5943L151.754 42.461L160.692 37.2335V25.9352L162.884 24.2489L162.547 23.9116ZM193.912 14.6369L192.226 16.1546L188.516 12.782L182.951 16.8291V13.1193H182.445L182.614 40.4374C182.108 40.4374 180.59 40.1002 179.41 39.7629L179.072 16.9978C179.072 15.3115 177.892 12.9506 174.857 12.9506C171.821 12.9506 169.798 15.3115 169.798 17.6723H170.304C170.472 16.6605 170.978 15.8174 171.99 15.8174C173.002 15.8174 173.845 16.4919 173.845 18.6841V25.2607C170.809 25.4293 168.954 27.1156 168.954 29.3078C168.954 30.6569 169.629 32.6804 171.653 32.6804V32.3432C170.978 32.0059 170.809 31.5 170.809 31.1628C170.809 30.151 171.653 29.8137 173.002 29.8137H173.676V40.2688C171.147 41.112 170.135 42.9669 170.135 44.9905C170.135 47.8572 172.327 49.8808 175.7 49.8808C178.061 49.8808 180.084 49.5435 182.108 49.0376C183.794 48.7003 185.986 48.1945 186.998 48.1945C188.347 48.1945 188.853 48.869 188.853 49.7121C188.853 50.8925 188.347 51.3984 187.672 51.5671V51.9043C190.371 51.3984 192.057 49.7121 192.057 47.1827C192.057 44.6532 189.527 43.1355 186.829 43.1355C185.48 43.1355 182.614 43.6414 180.59 43.9787C178.229 44.4846 175.868 44.8218 175.194 44.8218C174.013 44.8218 172.664 44.3159 172.664 42.6296C172.664 41.2806 173.845 40.1002 176.711 40.1002C178.229 40.1002 180.084 40.2688 181.939 40.7747C183.963 41.2806 185.818 41.7865 187.504 41.7865C190.033 41.7865 192.226 40.9433 192.226 37.4021V16.6605L194.249 14.9742L193.912 14.6369ZM186.998 24.9234C186.492 25.4293 185.818 25.9352 184.974 25.9352C184.131 25.9352 183.288 25.4293 182.951 24.9234V17.5037L184.637 16.3233L186.998 18.5155V24.9234ZM186.998 29.9823C186.661 29.6451 185.818 29.1392 184.974 29.1392C184.131 29.1392 183.288 29.6451 182.951 29.9823V25.5979C183.288 25.9352 184.131 26.4411 184.974 26.4411C185.818 26.4411 186.661 25.9352 186.998 25.5979V29.9823ZM186.998 37.908C186.998 39.257 186.155 40.6061 184.3 40.6061H182.951V30.6569C183.288 30.3196 184.131 29.8137 184.974 29.8137C185.818 29.8137 186.492 30.3196 186.998 30.6569V37.908ZM210.1 25.9352L204.704 22.0567L196.441 26.7784V37.7394L194.755 39.0884L194.924 39.4257L196.273 38.4139L201.669 42.461L210.1 37.4021V25.9352ZM200.994 36.5589V24.4175L205.21 27.4529V39.4257L200.994 36.5589ZM226.12 22.394H225.783C225.277 22.7312 224.771 23.0685 224.265 23.0685C223.591 23.0685 222.748 22.7312 222.41 22.2253H222.073L219.206 25.4293L216.34 22.2253L211.281 25.5979L211.449 25.9352L212.798 25.092L214.485 26.947V37.5707L212.293 39.257L212.63 39.5943L213.642 38.7511L217.689 42.1237L222.916 38.5825L222.748 38.2452L221.23 39.0884L219.206 37.4021V25.5979C220.05 26.4411 221.061 27.2842 222.242 27.2842C224.603 27.4529 225.952 25.092 226.12 22.394ZM246.356 38.5825L240.623 42.461L232.866 30.6569L238.43 22.0567H238.768C239.442 22.7312 240.454 23.4057 241.634 23.4057C242.815 23.4057 243.658 22.7312 244.164 22.0567H244.501C244.332 25.4293 241.972 27.4529 240.285 27.4529C238.599 27.4529 237.756 26.6097 236.744 26.1038L236.238 26.947L244.67 39.4257L246.356 38.4139V38.5825ZM227.807 37.7394L225.614 39.4257L225.952 39.7629L226.963 38.9198L230.673 42.2924L235.732 38.9198L235.395 38.5825L234.046 39.4257L232.36 37.7394V11.7702H232.191L226.12 15.8174V16.1546C226.795 16.4919 227.807 16.6605 227.807 18.6841V37.7394ZM274.349 15.3115C274.349 11.9389 271.145 11.0957 268.615 11.0957V11.6016C270.133 11.6016 271.313 12.1075 271.313 13.2879C271.313 13.9624 270.807 14.9742 269.29 14.9742C268.109 14.9742 265.58 14.2997 263.725 13.6252C261.533 12.9506 259.509 12.2761 257.823 12.2761C254.45 12.2761 252.089 14.8056 252.089 17.6723C252.089 20.2018 253.944 21.0449 254.619 21.3822L254.787 21.0449C254.282 20.7077 253.776 20.3704 253.776 19.3586C253.776 18.6841 254.45 17.5037 256.137 17.5037C257.654 17.5037 259.678 18.1782 262.376 19.0213C264.737 19.6959 267.266 20.2018 268.615 20.3704V25.5979L266.086 27.7901V27.9588L268.615 30.151V37.4021C267.266 38.2452 265.749 38.4139 264.399 38.4139C261.87 38.4139 259.678 37.7393 257.823 35.7158L264.737 32.3432V20.539L256.305 24.2489C257.148 22.0567 259.003 20.539 260.69 19.3586L260.521 19.0213C255.462 20.3704 250.909 24.9234 250.909 30.6569C250.909 37.4021 256.474 42.461 262.713 42.461C269.458 42.461 273.843 37.0648 273.843 31.5H273.506C272.494 33.6922 270.976 35.7158 269.121 36.7276V29.8137L271.819 27.6215V27.4529L269.29 25.2607V20.2018C271.819 20.2018 274.349 18.5155 274.349 15.3115ZM259.678 33.8608L257.654 34.8726C256.474 33.355 255.799 31.3314 255.799 28.4647C255.799 27.2842 255.968 25.9352 256.305 24.9234L259.846 23.4057L259.678 33.8608ZM280.251 13.6252H280.082L276.709 16.4919V16.6605L279.576 19.8645H279.913L283.286 16.9978V16.8291L280.251 13.6252ZM285.31 38.5825L283.961 39.4257L282.274 37.7394V26.1038L283.961 24.9234L283.623 24.5862L282.443 25.5979L279.408 22.0567L274.517 25.4293L274.855 25.9352L276.035 25.092L277.553 26.947V37.908L275.36 39.5943L275.529 39.9315L276.709 39.0884L280.419 42.461L285.478 39.0884L285.31 38.5825ZM313.471 38.4139L312.291 39.257L310.436 37.5707V26.1038L312.122 24.7548L311.785 24.4175L310.436 25.5979L306.557 22.0567L301.498 25.5979L297.62 22.0567L292.898 25.5979L289.863 22.0567L284.972 25.4293L285.141 25.9352L286.321 25.092L288.008 26.947V37.908L286.659 39.257L290.537 42.461L294.247 39.0884L292.729 37.5707V26.1038L294.247 25.092L296.777 27.4529V37.5707L295.427 38.9198L299.306 42.1237L303.016 38.7511L301.498 37.2335V26.1038L302.847 25.2607L305.545 27.6215V37.7394L304.365 38.9198L308.243 42.461L313.471 38.9198V38.4139ZM328.142 35.8844L323.926 39.0884L319.71 35.7158V33.6922L327.636 28.296V28.1274L323.589 22.0567L314.82 26.7784V38.2452L320.722 42.461L328.31 36.3903L328.142 35.8844ZM319.71 33.0177V24.7548L320.048 24.5862L323.757 30.4882L319.71 33.0177ZM343.487 31.5L340.283 28.9706C342.475 27.1156 343.319 24.5862 343.319 22.8999V21.8881H342.981C342.644 22.7312 341.97 23.5744 340.621 23.5744C339.271 23.5744 338.428 22.8999 337.585 21.8881L329.997 26.1038V32.1745L332.864 34.3667C329.997 36.8962 329.491 38.5825 329.491 39.9315C329.491 41.6179 330.334 42.7983 331.683 43.3042L331.852 42.9669C331.514 42.6296 331.177 42.461 331.177 41.6179C331.177 41.112 331.852 40.2688 333.201 40.2688C334.887 40.2688 335.899 41.4492 336.405 41.9551L343.656 37.5707V31.5H343.487ZM341.632 26.4411C340.452 28.4647 337.922 30.4882 336.405 31.5L334.55 29.9823V24.0803C335.224 25.7666 337.079 27.1156 338.934 27.1156C340.115 27.1156 340.789 26.947 341.632 26.4411ZM338.766 39.9315C337.922 38.0766 335.899 36.7276 333.875 36.7276C333.369 36.7276 332.02 36.7276 330.671 37.5707C331.514 36.2217 333.707 33.8608 336.573 32.1745L338.597 33.8608L338.766 39.9315Z" fill="#616867"/>
</g>
<defs>
<clipPath id="clip0_2467_58851">
<rect width="311.967" height="42.1577" fill="white" transform="translate(33.2068 10.4211)"/>
</clipPath>
</defs>
</svg>
