<svg width="188" height="69" viewBox="0 0 188 69" fill="none" xmlns="http://www.w3.org/2000/svg">
<path fill-rule="evenodd" clip-rule="evenodd" d="M146.024 40.308H154.388C153.336 53.0955 135.722 53.1981 134.182 43.0566V49.6609H122.037V42.9847C120.977 49.5108 117.259 50.4112 115.629 50.4066C114.261 50.402 110.911 49.2735 109.671 45.8328L109.79 49.5797C109.816 51.9042 111.295 53.3773 112.866 53.587V58.9954L98.6939 59V53.587C99.8834 53.5549 101.79 52.3819 101.811 49.7727V39.9727C101.376 42.4365 99.5586 50.4036 90.8417 50.4036C82.2041 50.4036 80.2506 41.9893 79.88 40.7567C78.2666 49.9228 72.1956 50.4281 69.5299 50.3944C64.7414 50.3331 61.8744 47.0256 61.8042 46.9521C58.9235 44.0152 58.3699 39.5669 58.4858 34.7695C58.4858 33.8048 58.7313 31.929 58.8183 31.0072C55.7195 34.3499 52.8479 33.9319 49.4395 34.0605L46.5756 34.0544V39.5363C46.5725 41.7413 47.3792 43.0582 49.8299 43.0765V49.6686H33V43.2143C35.4507 43.1975 36.2909 41.7597 36.2879 39.5547V20.0082C36.2879 19.5412 36.1735 16.5185 33.0091 16.4956V10H51.1719C54.594 10 57.0279 11.0474 58.6673 12.3428C61.6959 14.7392 62.3013 18.8568 62.5469 21.9055C67.1737 17.863 78.1369 16.9626 79.973 29.0564C81.9555 19.8413 88.7189 19.1446 90.3019 19.137C93.146 19.1278 98.0016 20.852 99.5769 25.5146V19.7663H109.526V23.4643C110.258 20.6728 112.713 19.1569 115.202 19.1416C117.602 19.1262 122.517 21.8029 123.779 31.9903V18.4249C123.768 16.4695 122.577 15.4589 120.628 15.4696L120.622 10.0597H132.2V31.9995C133.255 22.2806 138.657 19.1707 143.204 19.1707C147.82 19.1707 151.094 21.7554 152.77 25.0629C154.919 29.2937 154.765 33.7665 154.636 36.6652L140.549 36.6683C140.499 37.2241 140.551 38.1566 140.595 39.0157C140.714 41.4228 141.501 43.6002 143.378 43.5895C144.906 43.5987 145.711 42.1409 146.024 40.308ZM69.7952 43.5895C71.3232 43.5987 72.1285 42.1578 72.4411 40.3233L79.7778 40.3203C79.4073 38.4828 79.363 38.0954 79.3219 36.6667L66.9663 36.6683C66.916 37.2241 66.9694 38.1566 67.0121 39.0157C67.131 41.4228 67.9179 43.6002 69.7952 43.5895ZM87.7719 34.8246C87.7719 39.7001 88.6442 43.6247 90.8356 43.6553C93.0865 43.6844 93.8993 39.7001 93.8993 34.8246C93.8993 29.9476 93.027 26.0261 90.8341 25.9954C88.7037 25.9648 87.7719 29.9476 87.7719 34.8246ZM69.7449 25.8209C67.8676 25.8117 67.0197 28.1177 66.9007 30.5233C66.8611 31.3395 66.8458 31.3762 66.9007 31.9857H72.4685C72.525 31.3762 72.5097 31.3395 72.4685 30.5233C72.3496 28.1177 71.6206 25.8117 69.7449 25.8224V25.8209ZM143.326 26C141.449 25.9908 140.66 28.1177 140.541 30.5233C140.502 31.3395 140.487 31.3762 140.541 31.9857H146.109C146.164 31.3762 146.149 31.3395 146.109 30.5233C145.99 28.1177 145.202 25.9908 143.326 26ZM110.054 39.2622C110.054 41.7153 110.655 43.5788 112.367 43.5788C114.281 43.5788 115.423 40.9741 115.423 34.8507C115.423 28.13 114.391 25.8239 112.593 25.7443C110.851 25.6677 109.964 27.1531 110.054 30.2202V39.2622ZM46.603 26.6753H48.9637C51.0987 26.6141 51.8459 25.3217 51.8459 22.0402C51.8459 19.0558 50.8013 17.5047 48.9637 17.5047H46.603V26.6753Z" fill="#616867"/>
</svg>
