<svg width="211" height="57" viewBox="0 0 211 57" fill="none" xmlns="http://www.w3.org/2000/svg">
<path fill-rule="evenodd" clip-rule="evenodd" d="M99.009 6.37429L99.1107 10.505L98.1484 10.5553C98.0724 8.02747 97.5396 7.68232 93.6971 7.68232H92.8749V22.1532C92.8749 24.1521 93.3832 24.6816 95.3519 24.7369L95.4011 25.4278C93.5373 25.4032 92.1237 25.4032 91.2268 25.4032C90.2835 25.4032 88.8185 25.4032 86.8978 25.4278L86.9469 24.7369C88.9207 24.6816 89.4301 24.1521 89.4301 22.1527V7.68176H88.4689C84.5219 7.68176 83.9885 8.02747 83.9377 10.5553L82.981 10.505L83.0759 6.37429C86.6783 6.39831 89.3742 6.43126 91.1827 6.43126C92.8749 6.43126 95.5117 6.39831 99.009 6.37429ZM100.605 24.7877C102.392 24.7877 102.633 24.442 102.659 21.9388V9.86831C102.633 7.36006 102.391 7.01267 100.605 7.01267L100.552 6.37318C102.98 6.24249 103.536 6.15983 105.729 5.7644V13.9705C107.14 12.4497 108.289 11.837 109.864 11.837C112.473 11.837 113.916 13.4366 113.916 16.4754V21.9388C113.943 24.442 114.183 24.7877 115.966 24.7877L116.012 25.4278C114.477 25.3775 113.304 25.3216 112.53 25.3216C111.779 25.3216 110.686 25.3775 109.22 25.4278L109.276 24.7877C110.686 24.5771 110.821 24.3146 110.847 21.9388V17.9387C110.847 14.581 110.263 13.4657 108.503 13.4657C107.565 13.4657 106.554 14.0733 106.128 15.0088C105.968 15.3294 105.861 15.6718 105.754 16.0186C105.729 16.1571 105.729 16.2587 105.729 16.3129V21.9388C105.729 24.3146 105.889 24.5771 107.296 24.7877L107.354 25.4278C105.861 25.3775 104.762 25.3216 104.019 25.3216C103.246 25.3216 102.071 25.3775 100.552 25.4278L100.605 24.7877ZM120.305 16.9574C122.755 16.9027 123.501 16.8441 125.932 16.581C125.612 13.9968 124.641 12.7692 122.995 12.7692C121.395 12.7692 120.568 14.0454 120.305 16.9574ZM128.759 22.8156C127.104 24.8698 125.481 25.7254 123.392 25.7254C119.691 25.7254 117.185 23.0055 117.185 19.0289C117.185 14.7441 119.77 11.8359 123.501 11.8359C125.506 11.8359 126.949 12.5793 127.935 14.1554C128.6 15.2774 128.784 16.0471 128.809 17.9683H120.381C120.493 21.9661 121.954 24.256 124.391 24.256C125.826 24.256 127.052 23.5886 128.361 22.0722L128.759 22.8156ZM30.5026 50.0613C32.6662 50.006 33.227 49.4162 33.227 47.1978V33.3245C33.227 31.1089 32.6662 30.5197 30.5026 30.4582L30.4166 29.7433L34.9516 29.8003L42.1229 29.7098L44.0106 29.7433L44.1279 34.0327L42.945 34.122C42.7411 31.4367 42.239 31.1413 38.0313 31.1413H37.3778L37.0829 31.167V39.1536C37.6392 39.1536 38.0905 39.1849 38.3574 39.1849C38.8104 39.2177 39.2643 39.2359 39.7185 39.2396C42.0318 39.2396 42.5652 38.7426 42.5898 36.5459H43.599C43.5096 38.3041 43.5096 39.2145 43.5096 40.0992C43.5096 40.8107 43.5096 41.8093 43.5392 43.1374H42.5898C42.4736 41.019 41.9978 40.6029 39.7783 40.5767L38.177 40.5432L37.0533 40.6029V46.7856C37.0533 49.3 37.2002 49.4162 39.6872 49.4162C42.9774 49.4162 43.9559 48.6767 44.2469 45.8602L45.4309 45.9233L44.7501 50.8309L42.4736 50.8627L35.2806 50.8046L30.416 50.8309L30.5026 50.0613ZM60.3682 48.7354C58.6832 50.479 57.3427 51.1593 55.3941 51.1593C51.4941 51.1593 48.9947 48.116 48.9947 43.5301C48.9947 38.7437 51.6342 35.7462 55.8957 35.7462C57.0183 35.7462 58.1531 35.9528 59.9041 36.4275L59.9543 39.9204L58.624 40.0098C58.1297 37.4021 57.6103 36.7816 55.8957 36.7816C53.6806 36.7816 52.5279 38.709 52.5279 42.5192C52.5279 46.9649 53.9118 49.4754 56.4285 49.4754C57.7292 49.4754 58.7725 48.9118 59.9281 47.6725L60.3682 48.7354ZM67.1473 43.7027C67.4411 47.878 68.8323 50.1506 71.1083 50.1506C73.2362 50.1506 74.5112 47.9389 74.5112 44.2667C74.5112 39.897 72.7603 36.8688 70.3398 36.8688C68.1834 36.8688 67.0853 38.6833 67.0853 42.3768C67.0853 42.8208 67.0853 43.262 67.1473 43.7027ZM63.5271 44.0311V43.5826C63.5271 38.594 66.2146 35.7467 70.7843 35.7467C75.0234 35.7467 78.0376 38.8911 78.0376 43.4653C78.0376 48.0556 75.1094 51.1598 70.6955 51.1598C66.4833 51.1598 63.6762 48.3226 63.5271 44.0311ZM81.5305 50.1238C83.4591 50.1238 83.7523 49.7384 83.7523 46.9643V40.1561C83.7523 37.4619 83.4591 37.0771 81.5305 37.0469L81.4714 36.3695C84.05 36.2209 84.6459 36.1315 86.8877 35.6574L87.0391 38.2751C88.7241 36.427 90.0243 35.7462 91.778 35.7462C94.6504 35.7462 96.2729 37.6105 96.2729 40.8995V46.9649C96.2461 47.1972 96.2461 47.4357 96.2461 47.6725C96.2461 49.5631 96.7471 50.1238 98.5527 50.1238L98.6108 50.8309C96.8962 50.7745 95.5949 50.7136 94.7364 50.7136C93.9098 50.7136 92.6677 50.7745 91.0916 50.8309L91.1436 50.1238C92.6677 49.8853 92.8425 49.5932 92.8425 46.9643L92.8749 45.1525V42.5197C92.8749 38.8018 92.1936 37.6105 90.322 37.6105C89.1659 37.6105 88.1907 38.2025 87.5998 39.2737C87.3636 39.7171 87.1586 40.4214 87.1586 40.7208V46.9649C87.1877 49.5938 87.3362 49.8859 88.9017 50.1238L88.9928 50.8309C87.3362 50.7745 86.0947 50.7136 85.267 50.7136C84.4057 50.7136 83.143 50.7745 81.4714 50.8309L81.5305 50.1238ZM104.769 43.7027C105.067 47.878 106.452 50.1506 108.682 50.1506C110.811 50.1506 112.084 47.9389 112.084 44.2667C112.084 39.897 110.34 36.8688 107.932 36.8688C105.807 36.8688 104.712 38.6833 104.712 42.3768C104.712 42.8208 104.712 43.2625 104.768 43.7032M101.102 44.0311V43.5826C101.102 38.594 103.797 35.7467 108.361 35.7467C112.648 35.7467 115.66 38.8911 115.66 43.4653C115.66 48.0556 112.734 51.1598 108.272 51.1598C104.089 51.1598 101.252 48.3226 101.102 44.0311ZM118.968 50.1238C120.953 50.1238 121.249 49.7384 121.249 46.9643V40.1561C121.249 37.4619 120.953 37.0771 118.968 37.0469L118.908 36.3695C121.54 36.2209 122.138 36.1315 124.367 35.6574L124.5 38.2751C126.164 36.4577 127.467 35.7462 129.211 35.7462C131.221 35.7462 132.401 36.575 133.24 38.5052C135.047 36.4834 136.374 35.7462 138.18 35.7462C140.971 35.7462 142.533 37.6384 142.533 40.8995V46.9649C142.533 47.1972 142.503 47.4357 142.503 47.6725C142.503 49.5631 143.039 50.1238 144.81 50.1238L144.874 50.8309C143.157 50.7745 141.857 50.7136 141.024 50.7136C140.222 50.7136 139.005 50.7745 137.382 50.8309L137.44 50.1238C139.005 49.8853 139.154 49.5932 139.184 46.9643V42.5197C139.184 38.8593 138.54 37.6105 136.701 37.6105C135.608 37.6105 134.483 38.2751 134.01 39.2737C133.861 39.6256 133.716 39.983 133.627 40.3968C133.597 40.5432 133.566 40.6616 133.566 40.7208V46.9649C133.566 49.5938 133.743 49.8859 135.309 50.1238L135.373 50.8309C133.805 50.7745 132.653 50.7136 131.87 50.7136C131.104 50.7136 129.948 50.7745 128.41 50.8309L128.472 50.1238C130.039 49.8853 130.187 49.5932 130.212 46.9643V42.5197C130.212 38.8593 129.565 37.6105 127.728 37.6105C126.61 37.6105 125.602 38.2287 125.04 39.2737C124.802 39.7445 124.612 40.4214 124.612 40.7208V46.9649C124.641 49.5938 124.773 49.8859 126.342 50.1238L126.401 50.8309C124.773 50.7745 123.579 50.7136 122.755 50.7136C121.893 50.7136 120.625 50.7745 118.908 50.8309L118.968 50.1238ZM149.334 30.7285C149.333 30.4712 149.383 30.2163 149.481 29.9783C149.579 29.7404 149.723 29.5241 149.904 29.342C150.086 29.1598 150.302 29.0154 150.54 28.9169C150.778 28.8184 151.032 28.7679 151.29 28.7682C152.387 28.7682 153.271 29.678 153.271 30.7285C153.271 31.8467 152.416 32.7364 151.29 32.7364C150.167 32.7364 149.334 31.8779 149.334 30.7285ZM153.122 35.6574V45.1525L153.15 46.9643C153.15 49.7379 153.421 50.1227 155.428 50.1227L155.49 50.8309C153.653 50.7745 152.324 50.7141 151.409 50.7141C150.523 50.7141 149.226 50.7745 147.437 50.8309L147.492 50.1227C149.445 50.1227 149.724 49.7379 149.724 46.9643L149.751 45.1525V42.0495L149.724 40.1572C149.724 37.4619 149.444 37.0771 147.492 37.0475L147.437 36.3689C150.108 36.193 150.726 36.1019 153.122 35.6574ZM159.05 50.302L158.934 47.2838L160.439 47.2285C161.12 49.5039 161.566 49.9451 163.134 49.9451C164.491 49.9451 165.381 49.238 165.381 48.1757C165.381 47.1665 164.761 46.4337 162.894 45.1821C161.95 44.532 161.302 44.0847 160.947 43.8222C160.176 43.2318 159.614 42.5197 159.318 41.7255C159.137 41.281 159.05 40.7515 159.05 40.1299C159.05 37.4943 160.889 35.7462 163.664 35.7462C164.698 35.7462 165.29 35.8344 167.636 36.3963L167.7 39.3318L166.197 39.3932C165.862 37.4619 165.262 36.7816 163.874 36.7816C162.543 36.7816 161.595 37.5513 161.595 38.5929C161.595 39.6255 162.071 40.2461 163.608 41.2212C164.995 42.1399 166.058 42.9637 166.78 43.6144C167.609 44.4108 168.085 45.415 168.085 46.5326C168.085 49.1447 165.89 51.1593 163.075 51.1593C161.983 51.1593 160.947 50.9163 159.05 50.302ZM171.216 36.6057C173.548 36.427 174.43 35.4256 175.099 32.3488H176.429V36.3393H180.157L179.741 37.964H176.429V45.1821C176.429 48.7677 176.904 49.6206 178.914 49.6206C179.385 49.6206 179.827 49.5625 180.54 49.3581V50.2126C179.537 50.775 178.147 51.0984 176.73 51.0984C175.421 51.0984 174.209 50.3623 173.701 49.2665C173.256 48.3505 173.111 47.4357 173.111 45.4759V37.964H171.216V36.6057Z" fill="#616867"/>
</svg>
