<svg width="206" height="57" viewBox="0 0 206 57" fill="none" xmlns="http://www.w3.org/2000/svg">
<path d="M74.339 11.1781C66.3761 11.2351 59.8628 20.0851 59.8628 27.8044C59.8628 35.9277 64.6373 45.8368 74.339 45.8046C84.0406 45.7725 89.076 35.1045 89.076 27.8044C89.076 19.7409 82.3018 11.1212 74.339 11.1781ZM74.339 11.4809C81.0035 11.4809 82.8015 18.8414 82.8015 27.8044C82.8015 39.6309 80.6326 45.4655 74.339 45.4544C68.0453 45.4433 65.9978 40.6679 65.9978 27.8044C65.9978 19.7465 67.6744 11.4809 74.339 11.4809Z" fill="#616867"/>
<path d="M91.7055 28.0227C91.6698 19.2394 98.6995 11.459 104.65 11.073C106.8 10.9207 109.563 11.905 111.176 12.6062C112.347 13.1154 114.738 12.3784 115.163 11.0262H115.394V22.9908H115.163C115.163 22.4808 112.947 11.3738 104.65 11.3738C98.522 11.3738 97.93 22.1496 97.93 28.0227C97.93 33.8958 98.1085 45.5225 105.26 45.5225C108.724 45.5225 111.289 44.0068 111.953 40.9405V31.617H109.046V31.2199H120.317V31.617H117.537V45.2479H117.311C117.311 45.2479 116.859 43.2812 114.565 43.2877C111.634 43.2961 108.87 45.8428 105.5 45.8118C96.588 45.7298 91.7412 36.806 91.7055 28.0227Z" fill="#616867"/>
<path d="M38.0018 12.3567H34.4922V11.9622H46.7865V12.3567H43.7022L52.4868 36.213C55.2338 27.7558 57.3619 21.5043 60.2256 12.3567H57.1748V11.9622H63.6663V12.3567H60.7102L50.0333 45.6408L38.0018 12.3567Z" fill="#616867"/>
<path d="M122.038 37.492L121.983 12.3184H118.642V11.9413H130.95V12.3184H127.611L127.685 39.9199C128.424 43.0805 129.738 45.4787 134.228 45.5144C138.717 45.5501 141.769 42.8586 142.903 39.1804V12.3184H139.082L139.082 11.9524H170.36L170.425 24.0367H170.125C169.545 16.2343 166.534 13.2856 161.269 12.4253C159.457 12.1293 157.556 12.3487 155.154 12.3301V27.7529C157.246 27.9145 159.475 27.7823 160.977 26.4922C162.343 25.3191 162.729 22.6087 162.829 21.5076H163.094V34.9361H162.807C162.725 34.9361 162.615 31.5663 160.977 29.9675C159.328 28.3583 157.228 27.9626 155.154 28.346V44.8209C158.084 44.8209 160.421 45.0692 162.449 44.513C168.616 42.8222 170.787 37.6193 170.771 32.401H171.114V45.211H146.58V44.8209H149.354V12.3184H143.36V39.1804C142.681 41.7506 140.198 46.0026 133.835 45.9736C127.919 45.9466 122.051 43.2794 122.038 37.492Z" fill="#616867"/>
</svg>
