<svg width="190" height="53" viewBox="0 0 190 53" fill="none" xmlns="http://www.w3.org/2000/svg">
<path d="M68.67 5.14312V5.98702L69.4638 6.16715C70.6838 6.46819 70.8675 7.19117 71.355 9.47982L72.625 15.9139L69.085 34.7079L64.2637 11.0936C63.7137 8.50267 63.5312 6.57552 65.485 6.15357L66.4 5.97344V5.14312H55V5.98702L56.16 6.28929C57.32 6.59033 57.8075 7.13195 58.6013 10.6864L66.3513 46.889H68.3512L73.5388 19.5412L79.2887 46.889H80.8763L88.3225 11.8055C89.1775 7.77105 89.5438 6.62364 91.01 6.25351L92.1688 5.95124V5.14312H83.7937V5.98702L85.075 6.2276C86.9062 6.5891 87.3325 7.7328 86.4775 12.3718L81.9125 34.7079L77.2875 11.0936C76.7875 8.74449 76.4937 6.57552 78.5087 6.21403L79.8513 5.97344V5.12955L68.67 5.14312ZM122.975 5.25662V6.10052L124.5 6.46202C125.841 6.76306 126.391 7.24546 126.391 8.93202V38.1477C126.391 41.3999 126.391 45.6774 122.972 45.6774C121.02 45.6774 119.498 43.9908 119.618 42.8459C119.739 40.9792 123.035 41.0989 123.218 38.0872C123.401 35.9898 122.057 35.0028 120.715 34.8338C118.824 34.5932 116.505 36.1589 116.442 39.2914C116.382 43.3258 119.068 47 123.643 47C128.705 47 132.017 43.6293 132.017 37.1829L132.019 8.99125C132.019 7.30468 132.446 6.76182 133.666 6.46202L135 6.08695V5.24305L122.975 5.25662ZM102.413 5C97.225 5 94.2963 9.27748 94.2963 14.8788C94.2963 25.3005 107.906 29.3361 107.906 38.7337C107.906 43.1913 106.014 45.6601 103.281 45.6601C99.1938 45.6601 96.2625 40.783 95.5312 33.0115H94.6163V46.7458H95.3487C95.9587 44.7718 96.7525 44.5781 97.4237 44.5781C98.5837 44.5781 99.8025 46.984 103.342 46.984C108.774 46.984 112.313 42.3475 112.315 35.959C112.315 23.4301 98.705 20.358 98.705 11.3823C98.705 9.33423 99.315 6.32383 102.368 6.32383C106.763 6.32383 108.655 12.0461 109.386 18.9737H110.301V5.24182H109.569C109.264 6.56689 108.715 7.16897 107.921 7.16897C106.518 7.16897 105.796 5.00123 102.429 5.00123L102.413 5ZM112.238 16.8133V16.9614L112.266 16.9441L112.251 16.8208L112.238 16.8133Z" fill="#616867"/>
</svg>
